<svg width="11" height="7" viewBox="0 0 11 7" fill="none" xmlns="http://www.w3.org/2000/svg">
<path d="M0.000100092 1.49994C-0.000699902 1.36833 0.0244998 1.23787 0.0742998 1.11603C0.1241 0.994194 0.1974 0.883378 0.2901 0.789938C0.383 0.69621 0.4936 0.621815 0.6155 0.571047C0.7374 0.520278 0.8681 0.49414 1.00007 0.49414C1.13208 0.49414 1.26279 0.520278 1.38465 0.571047C1.50651 0.621815 1.61711 0.69621 1.71007 0.789938L5.00007 4.09994L8.31007 0.919939C8.49743 0.733688 8.75089 0.629147 9.01507 0.629147C9.27926 0.629147 9.53271 0.733688 9.72007 0.919939C9.8138 1.0129 9.88819 1.1235 9.93896 1.24536C9.98973 1.36722 10.0159 1.49793 10.0159 1.62994C10.0159 1.76195 9.98973 1.89266 9.93896 2.01452C9.88819 2.13638 9.8138 2.24698 9.72007 2.33994L5.72007 6.19994C5.53314 6.38317 5.28182 6.4858 5.02007 6.4858C4.75832 6.4858 4.507 6.38317 4.32007 6.19994L0.3201 2.19994C0.2231 2.11018 0.145 2.00211 0.0900001 1.88196C0.0351001 1.76181 0.00450009 1.63197 0.000100092 1.49994Z" fill="#F9AA4B"/>
</svg>
